<svg xmlns="http://www.w3.org/2000/svg" viewBox="0 0 219.77 257.61"><defs><style>.cls-1{fill:#dbb400;}</style></defs><g id="Layer_2" data-name="Layer 2"><g id="レイヤー_1" data-name="レイヤー 1"><path class="cls-1" d="M58,256.06q.44,0,.48.84a4.55,4.55,0,0,1-2.62.71,4.13,4.13,0,0,1-1.52-.26,3.13,3.13,0,0,1-1.08-.69,3.05,3.05,0,0,1-.69-1,4.69,4.69,0,0,1-.32-1.15A5.52,5.52,0,0,1,49.92,257a7.29,7.29,0,0,1-3.15.65,11.19,11.19,0,0,1-1.68-.14,5,5,0,0,1-1.69-.57,3.66,3.66,0,0,1-1.31-1.23,3.84,3.84,0,0,1-.51-2.1,4.29,4.29,0,0,1,.69-2.48,5.62,5.62,0,0,1,1.79-1.67,11.15,11.15,0,0,1,2.38-1c.85-.26,1.68-.49,2.47-.67.45-.08.87-.17,1.25-.26a7.74,7.74,0,0,0,1-.3,1.08,1.08,0,0,0,.7-.43,2.79,2.79,0,0,0,.14-1.07,6,6,0,0,0-.72-3.08,2.7,2.7,0,0,0-2.54-1.21,3.73,3.73,0,0,0-1.14.16,1.88,1.88,0,0,0-.8.5,3,3,0,0,0-.55.89c-.16.37-.32.81-.48,1.31a1,1,0,0,1-.53.63,8.45,8.45,0,0,1-1.41.48,6.19,6.19,0,0,1-.6.16,2.92,2.92,0,0,1-.59.08c-.27,0-.4-.28-.4-.84a2.84,2.84,0,0,1,.68-1.74,6.81,6.81,0,0,1,1.72-1.55,10.42,10.42,0,0,1,2.28-1.09,7.5,7.5,0,0,1,2.34-.41,11.85,11.85,0,0,1,2.5.24,4.46,4.46,0,0,1,1.92.87,3.91,3.91,0,0,1,1.22,1.7,7.51,7.51,0,0,1,.43,2.78v6.82a13.53,13.53,0,0,0,.1,2,2.94,2.94,0,0,0,.29,1,1.6,1.6,0,0,0,.62.73,1.42,1.42,0,0,0,.69.18,1.56,1.56,0,0,0,.62-.08A.91.91,0,0,1,58,256.06Zm-6-7.73-1.28.2q-1,.19-2,.48a6.13,6.13,0,0,0-1.74.77A4,4,0,0,0,45.76,251a3.56,3.56,0,0,0-.45,1.86,3.14,3.14,0,0,0,.77,2.3A2.61,2.61,0,0,0,48,256a3.62,3.62,0,0,0,1.49-.33,3.86,3.86,0,0,0,1.28-1,5.25,5.25,0,0,0,.88-1.45,4.91,4.91,0,0,0,.34-1.82Z"/><path class="cls-1" d="M62.47,233.51a2.7,2.7,0,0,0-.41-1.69,2.65,2.65,0,0,0-1.81-.61.53.53,0,0,1-.51-.56,2,2,0,0,1,.08-.55q.51,0,1.44-.06c.62,0,1.13-.09,1.53-.14a12.73,12.73,0,0,0,1.65-.32,4.59,4.59,0,0,1,1-.2c.37,0,.56.2.56.6a11.38,11.38,0,0,1-.12,1.54,16.11,16.11,0,0,0-.12,2.14v9.91a10.65,10.65,0,0,1,2.88-2.79,6.59,6.59,0,0,1,3.47-.85,6.22,6.22,0,0,1,4.77,2.2,8.42,8.42,0,0,1,1.51,2.67,10.64,10.64,0,0,1,.57,3.61,8.8,8.8,0,0,1-.83,3.93,10.06,10.06,0,0,1-2,2.87A9,9,0,0,1,73.43,257a7.19,7.19,0,0,1-2.69.61,11.44,11.44,0,0,1-2.89-.36,12.76,12.76,0,0,1-2.49-.91,2.4,2.4,0,0,0-.83.24,4.75,4.75,0,0,0-.71.42l-.58.39a.81.81,0,0,1-.41.18,1.17,1.17,0,0,1-.6-.16c0-.42.06-.8.08-1.13s.06-.65.08-1,0-.64.06-1,0-.71,0-1.13ZM65.8,254A8,8,0,0,0,68,255.59a6.09,6.09,0,0,0,2.73.59,3.74,3.74,0,0,0,3.41-1.9,9.18,9.18,0,0,0,1.17-4.88,11.69,11.69,0,0,0-.34-2.87,8.11,8.11,0,0,0-1-2.4,5.33,5.33,0,0,0-1.57-1.63,3.76,3.76,0,0,0-2.09-.59,3.11,3.11,0,0,0-1.58.46,6.07,6.07,0,0,0-1.44,1.17,6.19,6.19,0,0,0-1.06,1.6A4.23,4.23,0,0,0,65.8,247Z"/><path class="cls-1" d="M92.52,244.8a.62.62,0,0,1-.45-.13.6.6,0,0,1-.18-.3,3.35,3.35,0,0,0-1.29-2.32,4.35,4.35,0,0,0-2.52-.7,3.36,3.36,0,0,0-2,.66,2.13,2.13,0,0,0-.89,1.8,2.18,2.18,0,0,0,.81,1.73,9.05,9.05,0,0,0,3,1.37,17.56,17.56,0,0,1,2.13.79,6.54,6.54,0,0,1,1.66,1.05,4.28,4.28,0,0,1,1.09,1.51,5.08,5.08,0,0,1,.4,2.12,5.4,5.4,0,0,1-.38,2A4.4,4.4,0,0,1,92.66,256a5.68,5.68,0,0,1-1.94,1.15,8,8,0,0,1-2.8.44,15.17,15.17,0,0,1-2.83-.3,9.21,9.21,0,0,1-2.84-1c0-.69-.09-1.41-.13-2.16s-.06-1.51-.06-2.28h.39a1.55,1.55,0,0,1,.68.14.54.54,0,0,1,.31.46,4,4,0,0,0,1.29,2.67,4.55,4.55,0,0,0,3.15,1,3.77,3.77,0,0,0,2.5-.73,2.49,2.49,0,0,0,.87-2,2.31,2.31,0,0,0-1-2,9.21,9.21,0,0,0-2.81-1.25,10.09,10.09,0,0,1-3.67-1.87,4.19,4.19,0,0,1-1.33-3.37,4.75,4.75,0,0,1,.4-1.94A4.66,4.66,0,0,1,84,241.39a5.5,5.5,0,0,1,1.74-1.07,6.49,6.49,0,0,1,2.3-.39,10.82,10.82,0,0,1,3,.41,9.9,9.9,0,0,1,2.2.9c0,.21.05.47.08.77s0,.62.06,1l0,1c0,.33,0,.63,0,.89Z"/><path class="cls-1" d="M97.16,248.77a8.71,8.71,0,0,1,.69-3.45,9.19,9.19,0,0,1,1.89-2.82,8.85,8.85,0,0,1,2.79-1.88,8.7,8.7,0,0,1,3.47-.69,9.57,9.57,0,0,1,3.57.65,8.36,8.36,0,0,1,2.79,1.81,8,8,0,0,1,1.83,2.79,9.75,9.75,0,0,1,.65,3.59,8.7,8.7,0,0,1-.69,3.47,8.85,8.85,0,0,1-1.88,2.79,9,9,0,0,1-2.8,1.89,8.7,8.7,0,0,1-3.47.69,9.65,9.65,0,0,1-3.57-.65,8.46,8.46,0,0,1-2.79-1.81,8.07,8.07,0,0,1-1.83-2.77A9.74,9.74,0,0,1,97.16,248.77Zm3.73-1.31a15,15,0,0,0,.31,3,10.76,10.76,0,0,0,1,2.8,6.19,6.19,0,0,0,1.68,2.06,3.93,3.93,0,0,0,2.5.81,4.23,4.23,0,0,0,3.51-1.58,6.43,6.43,0,0,0,1.25-4.09,16.77,16.77,0,0,0-.3-3.07,11.44,11.44,0,0,0-.95-2.93,6.61,6.61,0,0,0-1.71-2.2,3.92,3.92,0,0,0-2.59-.88,4.31,4.31,0,0,0-3.39,1.45A6.85,6.85,0,0,0,100.89,247.46Z"/><path class="cls-1" d="M126.3,257.33l-2.1-.14q-1.08-.06-2.16-.06t-2.22.06l-2.12.14a2.83,2.83,0,0,1-.08-.63.44.44,0,0,1,.35-.48,8.62,8.62,0,0,0,1.63-.45,1,1,0,0,0,.75-.94V233.51a2.32,2.32,0,0,0-.49-1.73,3.26,3.26,0,0,0-1.89-.57.53.53,0,0,1-.51-.56,2.43,2.43,0,0,1,.08-.55c.34,0,.82,0,1.43-.06s1.16-.09,1.66-.14a12.41,12.41,0,0,0,1.65-.32,4.69,4.69,0,0,1,1-.2.6.6,0,0,1,.48.16.72.72,0,0,1,.12.44,11.78,11.78,0,0,1-.12,1.56,15.88,15.88,0,0,0-.12,2.08v21.21a1,1,0,0,0,.74.94,8.14,8.14,0,0,0,1.64.45.43.43,0,0,1,.32.48A3.58,3.58,0,0,1,126.3,257.33Z"/><path class="cls-1" d="M130.94,244.05a2.91,2.91,0,0,0-.38-1.76,2.54,2.54,0,0,0-1.72-.58c-.35-.05-.52-.22-.52-.51a2.51,2.51,0,0,1,.08-.56c.34,0,.8,0,1.37-.06a11.66,11.66,0,0,0,1.45-.18,11.8,11.8,0,0,0,1.52-.29,4.13,4.13,0,0,1,1-.18c.37,0,.56.2.56.59v9.91a13,13,0,0,0,.12,1.83,4.51,4.51,0,0,0,.43,1.44,2.36,2.36,0,0,0,.92,1,3,3,0,0,0,1.5.33,5.86,5.86,0,0,0,1.94-.33,5,5,0,0,0,1.69-1,4.74,4.74,0,0,0,1.17-1.6,5.26,5.26,0,0,0,.44-2.22v-5.79a2.92,2.92,0,0,0-.38-1.74,2.57,2.57,0,0,0-1.77-.6q-.51-.08-.51-.51a2,2,0,0,1,.08-.56c.34,0,.8,0,1.37-.06a13,13,0,0,0,1.48-.18,11.65,11.65,0,0,0,1.53-.29,4,4,0,0,1,1-.18.51.51,0,0,1,.57.59v12.89a6.47,6.47,0,0,0,.07,1.09,1.36,1.36,0,0,0,.32.67,1.54,1.54,0,0,0,.66.4,4.55,4.55,0,0,0,1.09.18q.51.08.51.51a2,2,0,0,1-.08.56,11,11,0,0,0-1.58.12c-.56.07-1.09.15-1.6.23s-.95.16-1.34.24a4.77,4.77,0,0,1-.82.12c-.38,0-.56-.2-.56-.59v-3.29c-.08.07-.31.33-.68.75a11.55,11.55,0,0,1-1.45,1.35,11.69,11.69,0,0,1-2.06,1.29,5.67,5.67,0,0,1-2.51.57,4.53,4.53,0,0,1-3.63-1.39,5.75,5.75,0,0,1-1.21-3.92Z"/><path class="cls-1" d="M160,254.79a.75.75,0,0,1,.34-.23.68.68,0,0,1,.21,0c.24,0,.45.17.64.51A9.86,9.86,0,0,1,159,256.9a4.92,4.92,0,0,1-2.54.71,6.18,6.18,0,0,1-1.51-.18,2.69,2.69,0,0,1-1.23-.69,3.69,3.69,0,0,1-.81-1.41,7.42,7.42,0,0,1-.3-2.32V242.07h-2.37v-.44a1.25,1.25,0,0,1,.1-.51.39.39,0,0,1,.41-.24,2.68,2.68,0,0,0,1.75-.56,4.56,4.56,0,0,0,1.11-1.42c.31-.64.59-1.23.83-1.79s.5-.83.79-.83H156v4.12h4.64a3.3,3.3,0,0,1-.18,1.25.64.64,0,0,1-.65.42H156v9.83a13.75,13.75,0,0,0,.12,2,3.5,3.5,0,0,0,.36,1.19,1.11,1.11,0,0,0,.56.54,2,2,0,0,0,.71.12,2.68,2.68,0,0,0,1.25-.3A7.46,7.46,0,0,0,160,254.79Z"/><path class="cls-1" d="M176.85,253.45a.82.82,0,0,1,.59-.28c.27,0,.52.22.76.67a11.7,11.7,0,0,1-1.19,1.39,7.79,7.79,0,0,1-1.61,1.21,8.62,8.62,0,0,1-2.12.85,10.74,10.74,0,0,1-2.74.32,8.66,8.66,0,0,1-3-.52,6.93,6.93,0,0,1-2.52-1.58,8.08,8.08,0,0,1-1.74-2.66,9.62,9.62,0,0,1-.66-3.72,8.87,8.87,0,0,1,.78-3.73,9.36,9.36,0,0,1,2-2.91,9.25,9.25,0,0,1,2.72-1.89,6.89,6.89,0,0,1,2.87-.67q3.69,0,5.37,2.14a8.74,8.74,0,0,1,1.69,5.59.21.21,0,0,1-.24.24l-11.46.51a9.07,9.07,0,0,0,.44,2.86,6.92,6.92,0,0,0,1.22,2.26,5.57,5.57,0,0,0,1.92,1.48,5.82,5.82,0,0,0,2.55.54,5.26,5.26,0,0,0,2.43-.6A6.23,6.23,0,0,0,176.85,253.45Zm-6.41-12.1a3.56,3.56,0,0,0-3.07,1.55,6.79,6.79,0,0,0-1.11,4l7.46-.36c.39,0,.59-.17.59-.52a5.67,5.67,0,0,0-.24-1.58,4.87,4.87,0,0,0-.71-1.53,4,4,0,0,0-1.2-1.15A3.22,3.22,0,0,0,170.44,241.35Z"/><path class="cls-1" d="M145.41,109.08c-10.71,9.78-20.6,16.84-32.48,21.08.3,8,1.56,25,4.81,36.86,9.41,33.83,29.06,26.07,35.9-3.75,3.72-16.83,4.41-38.26,2.19-52.33-2.69-16.6,9-12.48,8-1.58-.81,10.75,1.7,26,7.47,37.4,10,19.58,18.08,9.36,18.51-6.73a91.85,91.85,0,0,0-2.17-21.17c-.56-2.63,1.29-4.21,2-.92a122.73,122.73,0,0,1,2.95,23.48c.11,7.31-2.58,15.79-8.27,20.14-11.28,8.61-24-13.35-24-22.84-.81,16.22-5,50.13-24.17,54.94C123.2,196.94,109.48,179,105.6,152.8a93.63,93.63,0,0,1-.9-19.73c-5.54,1.17-10.81,1.65-15.52.74-5.33-1.08-10.67-7.45-9.68-10.78,0-2.56,2.56-2.76,3.3.53,1,4.06,3.91,5.54,8.27,6.4a34.32,34.32,0,0,0,13.83-.42c1.94-24,9.53-49.25,29.35-64.37,10.88-8.3,21.6-8,27.34-.43S167.46,88.88,145.41,109.08Zm-8.83-41.5c-19,14.5-22.58,37-23.57,59.31,9.86-3.51,18.48-9.28,30.54-20.25,15.79-14.29,20.62-29.88,12.94-39.94C151.91,60.7,144,61.92,136.58,67.58Z"/><path class="cls-1" d="M110.27,219.77a47.91,47.91,0,0,1-34.13-14.13l-62-62a48.24,48.24,0,0,1,0-68.24L75.41,14.13a48.27,48.27,0,0,1,68.25,0l62,62a48.31,48.31,0,0,1,0,68.25l-61.27,61.26A47.9,47.9,0,0,1,110.27,219.77ZM109.53,6A42,42,0,0,0,79.64,18.37L18.37,79.63a42.27,42.27,0,0,0,0,59.78l62,62a42.28,42.28,0,0,0,59.79,0l61.27-61.27a42.32,42.32,0,0,0,0-59.78l-62-62A42,42,0,0,0,109.53,6Z"/><path class="cls-1" d="M9.88,120.38c.58,3.74,2.52,6,5.92,7.53,2.55,1.2,5.91,1.47,9.76.86,8.16-1.28,16.76-5.82,23.79-12.36,8.11-7.66,18-21.84,28-37.78-8.8.27-17.72.71-26.29,1.42C40.17,81.12,27.3,84.58,24.87,97.26a7.22,7.22,0,0,0,1.09,5.9c1.42,2-.85,3.64-2.56,1.84-1.57-2-2.78-5.64-3.06-9.43-1.42-19.1,14.63-21.46,30.48-22,9.24-.49,19.44.14,29.29.51,13.21-21.4,25.93-45,33.83-59a.69.69,0,0,0,.08-.49l.15,0a2,2,0,0,1,.7-.59,23.14,23.14,0,0,1,7.67-3.44,1.48,1.48,0,0,1,1.78,1.32,12.09,12.09,0,0,1-.5,1.83c-7.71,19.26-12.06,38.79-14.19,59.41l-.29,1.16c1.39-.22,2.64-.26,3.88-.45a23.92,23.92,0,0,0,11-3.32,8.64,8.64,0,0,0,4.08-4.16c.68-1.7,2.64-.25,2,1.45A10.42,10.42,0,0,1,125,73.23c-3,1.91-7.44,2.93-11.77,3.45-1.39.22-2.8.28-4.19.5a116.06,116.06,0,0,0,0,18.36c1.09,16,8,12.64,17.34,2.86A92.29,92.29,0,0,0,140.7,78c.52-.72,2.55-.88,2.07,1.11-.29,1.16-5.6,12.54-15.15,23.14A24.93,24.93,0,0,1,113.38,110c-6.47,1-11.19-5.91-11.67-16.06a90.06,90.06,0,0,1,.12-16.3c-6.26.34-12.39.5-18.68.69-9.9,17.37-20.2,33.2-29.73,42.84-7.06,7.34-15,11.79-23.82,13.17-5.7.89-10.55.22-14.48-1.72-4.63-2.31-7.42-6-8.33-11.79C6.28,117.59,8.85,113.83,9.88,120.38ZM110,28.46c-7,13.72-15.46,30.22-24.5,46l16.59.11c1.4-15.23,4.57-31.22,7.41-44.28C109.75,29.63,109.83,29.13,110,28.46Z"/></g></g></svg>