<svg xmlns="http://www.w3.org/2000/svg" viewBox="0 0 146.94 148.24"><defs><style>.cls-1{fill:#fff;}</style></defs><g id="Layer_2" data-name="Layer 2"><g id="_10" data-name="10"><path class="cls-1" d="M132.31,111.14,100.19,96.82a2.56,2.56,0,0,0-1.28-.32c-4.44,0-13.45,14.32-15.22,17.22l-.19.3h0c-.87,0-3.77-.59-12-6.07A113.42,113.42,0,0,1,40.3,76.72c-5.72-8.54-6.09-11.33-6.07-12C36.56,63.37,54,52.83,51.5,48.2L37.1,15.93,21,15.54a14,14,0,0,0-10.68,4.94C5.32,26.41-.56,36.1,0,48.54.71,62.2,18.78,92.56,37.23,111S86.05,147.54,99.7,148.2c.59,0,1.17,0,1.74,0,11.68,0,20.76-5.63,26.32-10.35a13.93,13.93,0,0,0,4.93-11Z"/><path class="cls-1" d="M146.94,68.87A70.94,70.94,0,0,0,79.06.05l-1,0h0V10.45a60.53,60.53,0,0,1,58.46,58.42Z"/><path class="cls-1" d="M126,68.87A50,50,0,0,0,79,21c-.32,0-.64-.07-1-.09h0V31.35a39.67,39.67,0,0,1,37.56,37.52Z"/><path class="cls-1" d="M78.81,41.9c-.24,0-.48-.07-.73-.09h0V52.3A18.78,18.78,0,0,1,94.64,68.87H105.1a29.1,29.1,0,0,0-26.29-27Z"/></g></g></svg>